<svg width="60" height="47" viewBox="-108 59 60 47" xmlns="http://www.w3.org/2000/svg"><defs><linearGradient x1="37.94%" y1="-794.09%" x2="58.82%" y2="1518.96%" id="a"><stop stop-color="#2178A3" offset="0%"/><stop stop-color="#35B3B9" offset="100%"/></linearGradient></defs><path d="M-93.9 80.7h31.04c.45-.1.9.23 1.14.84.23.6.23 1.37 0 1.98-.24.6-.62.97-1.07.97h-31c-.44.1-.85-.27-1.1-.88-.2-.6-.2-1.34 0-1.94.26-.6.7-1 1.13-.86l-.12-.2.03.04zm-5.05 13.53h42.67c.45-.07.82.26 1.05.87.23.6.23 1.38 0 1.96-.23.63-.68.97-1.13.9H-99c-.62-.13-1.06-1-1.06-1.96 0-.97.43-1.82 1.04-1.94l.07.17h.02-.02zm15.7-40.97h12.6c1.1.1 1.93.9 1.93 1.87 0 .85-.82 1.7-1.92 1.83h-12.6c-1.12-.13-1.94-.98-1.94-1.95 0-.94.8-1.8 1.9-1.92v.2h.03zM-56.2 70.8h-42.64c-.45.06-.8-.27-1.05-.88-.2-.6-.2-1.38 0-1.96.26-.6.7-.9 1.17-.9h42.63c.6.2 1.05 1 1.05 2s-.4 1.8-1.02 1.97l-.07-.16-.04-.08zM-72 111.65h-12.6c-1.1-.1-1.9-.9-1.9-1.86 0-.87.8-1.7 1.9-1.85H-72c1.12.2 1.93 1 1.93 2s-.8 1.8-1.93 1.97v-.28z" fill="url(#a)" fill-rule="evenodd" transform="rotate(-90 -77.56 82.5)"/></svg>
