<svg width="56" height="69" viewBox="-30 47 56 69" xmlns="http://www.w3.org/2000/svg"><defs><linearGradient x1="32.39%" y1="-794.09%" x2="62.88%" y2="1518.96%" id="a"><stop stop-color="#2178A3" offset="0%"/><stop stop-color="#35B3B9" offset="100%"/></linearGradient></defs><path d="M2.87 39.07h62.56c.66-.07 1.2.26 1.54.87.33.6.33 1.38 0 1.96-.34.63-1 .97-1.66.9H2.8c-.9-.13-1.55-1-1.55-1.96 0-.97.63-1.82 1.52-1.94l.1.17h.03zM15.2 25.63h38.6c.56-.1 1.13.24 1.42.85.28.6.28 1.37 0 1.98-.3.6-.77.97-1.33.97H15.3c-.56.13-1.08-.24-1.36-.85-.25-.6-.25-1.34 0-1.94.3-.6.84-.98 1.38-.85l-.15-.2zM28.82.2h11.3c.98.1 1.72.9 1.72 1.87 0 .85-.74 1.7-1.72 1.83h-11.3c-1-.13-1.73-.98-1.73-1.95S27.8.13 28.8 0v.2zm36.43 15.54H2.7c-.66.07-1.2-.26-1.54-.87-.34-.6-.34-1.38 0-1.96.33-.6 1-.9 1.66-.9h62.54c.9.2 1.55 1 1.55 2s-.6 1.8-1.5 1.97l-.1-.16zM38.9 54.6H27.6c-.98-.1-1.7-.9-1.7-1.86 0-.85.73-1.7 1.7-1.83h11.3c1 .2 1.73 1 1.73 2s-.73 1.8-1.73 1.97v-.2z" fill="url(#a)" fill-rule="evenodd" transform="rotate(-90 43 72.5)"/></svg>
